<?xml version="1.0" encoding="UTF-8"?>
<svg id="X" xmlns="http://www.w3.org/2000/svg" version="1.1" viewBox="0 0 500 500">
  <!-- Generator: Adobe Illustrator 29.8.1, SVG Export Plug-In . SVG Version: 2.1.1 Build 2)  -->
  <defs>
    <style>
      .st0 {
        fill: none;
        stroke: #000;
        stroke-miterlimit: 22.93;
        stroke-width: .75px;
      }
    </style>
  </defs>
  <path id="X1" data-name="X" class="st0" d="M226.94,401.14c-5.17-9.57-10.33-19.15-10.94-28.64-.61-9.5,3.34-18.92,9.35-27.81,6-8.89,14.06-17.25,19.07-23.4,5.01-6.15,6.99-10.11,7.45-14.21.46-4.1-.61-8.36-5.55-21.27-4.94-12.92-13.75-34.49-16.88-50.02-3.13-15.52-.58-24.99,1.82-34.61,2.4-9.62,4.64-19.4,6.3-27.66,1.65-8.26,2.71-15,.07-23.65-2.64-8.66-8.99-19.23-15-21.87-6.01-2.64-11.69,2.64-12.49,10.31-.79,7.66,3.3,17.71,8.46,23.85,5.15,6.14,11.36,8.39,15.13,7.4,3.77-.99,5.09-5.22,3.57-11.1-1.52-5.88-5.88-13.41-9.91-16.91-4.03-3.5-7.73-2.97-8.39-.33-.66,2.64,1.72,7.4,5.42,11.56,3.7,4.16,8.72,7.73,17.71,5.75,8.99-1.98,21.93-9.51,29.6-17.57,7.66-8.06,10.04-16.65,8.92-22.79-1.12-6.14-5.75-9.84-10.37-7.66-4.62,2.18-9.25,10.24-14.87,16.32-5.62,6.08-12.22,10.17-18.43,9.32-6.21-.86-12.02-6.67-11.96-13.61.07-6.94,6.01-15,14.47-18.63,8.46-3.63,19.42-2.84,27.88.86,8.46,3.7,14.4,10.31,17.77,18.21,3.37,7.91,4.17,17.12.19,23.71-3.98,6.59-12.73,10.57-20.55,12.34-7.82,1.77-14.72,1.33-21.61.88"/>
</svg>