<?xml version="1.0" encoding="utf-8"?>
<svg id="X" xmlns="http://www.w3.org/2000/svg" version="1.1" viewBox="0 0 500 500">
  <defs>
    <style>
      .st0 {
        fill: none;
        stroke: #231f20;
        stroke-linecap: round;
        stroke-linejoin: round;
        stroke-width: .75px;
      }
    </style>
  </defs>
  <path id="X1" data-name="X" class="st0" d="M 238.63 161.71 C 237.72 166.11 236.81 170.51 236.95 183.86 C 237.09 197.21 238.28 219.5 235.94 236.86 C 233.6 254.22 227.73 266.66 221.75 274.74 C 215.77 282.82 209.68 286.53 208.53 288.28 C 207.38 290.03 211.16 289.81 217.25 293.36 C 223.33 296.92 250.73 307.27 255.69 318.41 C 260.65 329.55 263.59 341.64 263.8 344.75 C 264.01 347.86 261.49 341.99 261.35 332.73 C 261.21 323.47 263.45 310.82 267.57 300.31 C 271.69 289.79 277.7 281.41 282.17 272.29 C 286.64 263.17 289.58 253.32 294.5 244.1 C 299.43 234.88 306.34 226.28 309.28 220.38 C 312.21 214.48 311.17 211.26 307.67 208.68 C 304.18 206.09 298.24 204.14 293.69 205.68 C 289.14 207.22 286 212.25 284.89 217.17 C 283.77 222.1 284.68 226.92 286.5 230.59 C 288.32 234.26 291.04 236.77 295.34 236.67 C 299.64 236.57 305.51 233.84 309.18 229.37 C 312.85 224.9 314.32 218.68 313.62 213.93 C 312.92 209.18 310.06 205.89 306.11 201.46 C 302.16 197.02 297.13 191.43 292.55 184.2 C 287.97 176.97 283.85 168.09 279.62 162.78 C 275.39 157.47 271.06 155.72 266.24 156.56 C 261.42 157.4 256.11 160.82 253.14 168.37 C 250.17 175.92 249.54 187.59 250.2 206.28 C 250.86 224.97 252.82 250.69 254.95 264.31 C 257.08 277.94 259.39 279.47 261.69 278.74 C 264 278.01 266.3 275 265.92 272.42 C 265.54 269.83 262.46 267.67 259.98 267.35 C 257.5 267.04 255.61 268.57 256.73 278.84 C 257.85 289.11 261.97 308.12 264.07 320.1 C 266.17 332.08 266.24 337.04 266.97 342.14 C 267.7 347.24 269.1 352.48 270.95 355.98 C 272.8 359.47 275.11 361.22 275.98 364.96 C 276.85 368.7 276.29 374.43 276.54 378.38 C 276.78 382.33 277.83 384.49 278.95 382.71 C 280.07 380.93 281.26 375.2 281.74 371.11 C 282.23 367.02 282.02 364.58 281.63 365.24 C 281.25 365.9 280.69 369.68 280.16 374.29 C 279.64 378.9 279.15 384.35 279.46 387.67 C 279.77 390.99 280.89 392.18 282.22 389.66 C 283.55 387.14 285.09 380.93 285.22 376.98 C 285.36 373.03 284.1 371.36 283.72 373.35 C 283.34 375.34 283.82 381 284.45 385.79 C 285.08 390.58 285.85 394.49 287.04 396.62 C 288.23 398.75 289.83 399.1 290.11 396.69 C 290.39 394.28 289.34 389.11 288.43 383.38 C 287.52 377.65 286.75 371.36 285.01 365.42 C 283.26 359.48 280.54 353.89 279 349.87 C 277.46 345.85 277.11 343.41 277.6 333.83 C 278.09 324.26 279.42 307.56 279.7 295.4 C 279.98 283.24 279.21 275.63 277.99 272.1 C 276.77 268.57 275.09 269.13 274.81 270.49 C 274.53 271.85 275.65 274.02 276.14 274.3 C 276.63 274.58 276.49 272.97 277.29 266.23 C 278.09 259.49 279.84 247.61 280.96 230.73 C 282.08 213.86 282.57 191.98 281.2 177.8 C 279.84 163.62 276.62 157.12 271.1 152.85 C 265.58 148.59 257.75 146.56 251.64 147.82 C 245.53 149.08 239.824 159.127 238.574 161.227"/>
</svg>