<?xml version="1.0" encoding="utf-8"?>
<svg version="1.1" xmlns="http://www.w3.org/2000/svg" x="0px" y="0px" viewBox="0 0 2200 1466" style="enable-background:new 0 0 2200 1466;">
  <path d="M 1438.03 1045.97 C 1431.76 1045.97 1425.66 1043.51 1421.05 1038.89 C 1396.87 1014.69 1370.52 988.164 1351.54 969.044 L 1316.59 972.318 C 1240.86 979.413 1162.55 986.748 1095.73 993.166 C 1079.87 994.687 1064.38 989.94 1052.11 979.792 C 1039.84 969.646 1032.27 955.328 1030.78 939.475 L 1022.75 850.083 C 1022.19 844.114 1031.28 839.31 1036.1 835.747 C 1042.49 831.025 1051.47 834.151 1049.98 860.833 L 1052.4 937.453 C 1053.34 947.523 1058.15 956.616 1065.94 963.059 C 1073.74 969.505 1083.58 972.525 1093.65 971.553 C 1160.5 965.133 1238.82 957.797 1314.56 950.701 L 1354.62 946.948 C 1357.85 946.648 1361.05 947.805 1363.34 950.11 C 1382.47 969.392 1410.68 997.785 1436.41 1023.54 C 1437.1 1024.23 1437.92 1024.43 1438.85 1024.12 C 1439.77 1023.81 1440.31 1023.16 1440.44 1022.19 C 1443.2 1002.22 1447.05 972.916 1449.76 946.778 C 1450.29 941.632 1454.38 937.576 1459.53 937.09 C 1478.53 935.294 1497.11 933.533 1515.11 931.817 C 1535.54 929.865 1550.53 912.294 1549.24 891.813 C 1547.65 866.487 1545.76 839.181 1543.93 812.774 C 1541.21 773.595 1538.41 733.083 1536.5 698.119 C 1535.51 679.911 1521.65 665.011 1503.57 662.689 L 1398.73 651.346 C 1392.78 650.582 1382.29 642.903 1383.05 636.956 C 1383.82 631.01 1391.96 625.46 1397.91 626.223 L 1506.33 641.154 C 1534.81 644.809 1556.61 668.27 1558.18 696.937 C 1560.08 731.741 1562.88 772.173 1565.59 811.274 C 1567.42 837.713 1569.31 865.053 1570.91 890.45 C 1572.94 922.694 1549.33 950.357 1517.17 953.43 C 1501.96 954.881 1486.34 956.363 1470.4 957.87 C 1467.77 981.866 1464.42 1007.24 1461.95 1025.16 C 1460.69 1034.29 1454.48 1041.77 1445.76 1044.7 C 1443.21 1045.56 1440.61 1045.97 1438.03 1045.97 Z"/>
  <path d="M 876.063 935.681 C 873.155 935.682 870.217 935.212 867.347 934.249 C 857.493 930.942 850.486 922.49 849.062 912.191 C 845.944 889.561 841.693 857.307 838.406 827.101 C 818.009 825.172 798.027 823.278 778.593 821.423 C 760.158 819.661 743.388 810.934 731.37 796.85 C 719.352 782.766 713.372 764.832 714.534 746.354 C 716.511 715.001 718.849 681.246 721.111 648.603 C 724.457 600.311 727.917 550.375 730.262 507.378 C 732.125 473.208 758.116 445.244 792.065 440.886 L 1330.23 371.747 C 1351.71 368.988 1372.98 376.036 1388.57 391.094 C 1404.15 406.148 1411.92 427.153 1409.9 448.72 C 1401.49 538.588 1387.16 691.634 1376.41 806.491 C 1374.64 825.387 1365.61 842.456 1350.99 854.549 C 1336.36 866.646 1317.88 872.304 1298.99 870.488 C 1216.52 862.567 1119.37 854.539 1025.9 845.785 L 981.913 840.59 C 961.806 860.851 926.829 896.059 895.237 927.684 C 890.028 932.899 883.141 935.681 876.063 935.681 Z M 1339.35 392.876 C 1337.24 392.876 1335.12 393.011 1332.99 393.284 L 794.83 462.423 C 771.271 465.447 753.234 484.851 751.942 508.562 C 749.588 551.718 746.123 601.735 742.772 650.105 C 740.513 682.715 738.176 716.436 736.204 747.719 C 734.528 774.386 754.055 797.269 780.658 799.812 C 802.881 801.932 825.824 804.106 849.284 806.323 C 854.436 806.809 858.528 810.865 859.061 816.011 C 862.411 848.324 867.168 884.535 870.57 909.224 C 870.989 912.258 873.286 913.342 874.254 913.666 C 875.222 913.99 877.709 914.513 879.877 912.341 C 913.431 878.75 950.815 841.108 970.113 821.658 C 972.399 819.353 975.599 818.188 978.833 818.496 L 1028.43 823.143 C 1121.91 831.9 1218.57 840.955 1301.07 848.877 C 1314.18 850.148 1327 846.21 1337.15 837.816 C 1347.3 829.425 1353.57 817.583 1354.79 804.469 C 1365.55 689.611 1379.88 536.566 1388.29 446.698 C 1388.29 446.698 1388.29 446.697 1388.29 446.696 C 1389.69 431.73 1384.29 417.154 1373.48 406.708 C 1364.21 397.751 1352.04 392.876 1339.35 392.876 Z"/>
</svg>