<?xml version="1.0" encoding="utf-8"?>
<svg version="1.1" xmlns="http://www.w3.org/2000/svg" x="0px" y="0px" viewBox="0 0 500 500" style="enable-background:new 0 0 500 500;">
  <g id="OBJECTS" transform="matrix(1, 0, 0, 1, -73.486328, 16.497732)">
    <g>
      <path style="fill:none;stroke:#222221;stroke-width:0.75;stroke-linecap:round;stroke-linejoin:round;stroke-miterlimit:10;" d="M 367.238 147.046 C 364.091 149.155 359.984 149.763 356.36 148.658 C 358.257 148.717 360.909 149.783 362.753 149.332 C 364.597 148.882 366.382 147.859 367.336 146.218 C 368.819 143.67 367.919 140.314 366.133 137.968 C 364.347 135.623 361.821 133.976 359.592 132.046 C 355.603 128.592 352.499 124.124 350.654 119.18 C 350.063 117.596 349.627 115.722 350.534 114.295 C 351.654 112.533 354.287 112.424 356.177 113.312 C 358.684 114.489 360.413 116.972 361.173 119.635 C 361.933 122.299 361.823 125.138 361.416 127.878 C 360.76 132.297 359.325 136.594 357.232 140.539 C 356.171 142.539 354.941 144.449 353.556 146.24 C 353.017 146.937 352.281 147.487 351.769 148.178 C 351.113 149.065 350.89 150.253 350.248 151.178 C 349.524 152.222 348.467 153.096 347.218 153.324 C 346.742 153.411 346.211 153.389 345.829 153.091 C 345.195 152.597 345.309 151.504 345.929 150.991 C 346.548 150.478 347.472 150.478 348.214 150.787 C 348.956 151.096 349.557 151.662 350.13 152.226 C 358.492 160.443 364.92 170.615 368.754 181.694 C 371.323 189.119 373.68 198.945 369.418 206.137 C 369.243 206.432 368.999 206.758 368.656 206.754 C 368.12 206.747 367.971 206.022 367.976 205.486 C 368.01 201.537 367.707 197.417 364.902 194.392 C 362.296 191.582 358.576 189.947 354.838 189.337 C 350.14 188.57 345.335 189.246 340.646 190.069 C 334.302 191.182 328.006 192.562 321.778 194.206 C 321.192 194.361 320.525 194.588 320.314 195.156 C 320.117 195.685 320.437 196.294 320.906 196.608 C 321.374 196.922 321.955 197.009 322.514 197.08 C 332.179 198.307 342.01 197.17 351.703 198.151 C 354.604 198.445 357.547 198.948 360.117 200.325 C 364.86 202.866 366.11 208.242 366.38 213.212 C 366.597 217.209 366.08 221.413 361.624 222.802 C 359.444 223.481 357.1 223.266 354.827 223.045 C 346.147 222.198 337.173 221.261 329.593 216.947 C 329.014 216.617 328.376 216.155 328.367 215.489 C 328.36 214.996 328.73 214.558 329.174 214.342 C 329.618 214.126 330.125 214.09 330.618 214.07 C 340.704 213.66 350.628 218.601 360.615 217.134 C 362.332 216.882 364.084 216.441 365.778 216.819 C 368.819 217.497 369.167 220.949 370.06 223.352 C 371.216 226.459 372.98 229.319 375.062 231.889 C 377.884 235.372 381.283 238.342 384.781 241.146 C 386.761 242.733 388.804 244.3 390.319 246.335 C 391.834 248.37 392.775 250.987 392.22 253.463 C 391.675 255.891 389.766 257.833 387.576 259.014 C 385.842 259.949 383.79 260.634 381.843 260.948 C 380.64 261.142 379.352 260.91 378.15 260.827 C 377.134 260.756 376.47 260.104 376.017 259.181 C 375.669 258.471 375.381 257.185 375.574 256.388 C 375.788 255.505 376.917 255.052 377.689 254.785 C 378.94 254.352 380.257 254.112 381.58 254.077 C 382.876 254.042 384.427 254.385 384.885 255.598 C 385.357 256.847 384.346 258.161 383.269 258.951 C 382.006 259.877 380.558 260.527 379.297 261.455 C 378.036 262.384 376.928 263.704 376.805 265.265 C 376.61 267.743 378.82 269.637 380.521 271.45 C 382.028 273.055 383.288 274.964 383.756 277.116 C 384.057 278.497 383.996 279.977 383.511 281.31 C 383.025 282.645 382.012 283.852 381.167 284.981 C 380.657 285.661 379.427 285.965 378.633 286.219 C 377.627 286.541 376.585 286.738 375.543 286.903 C 371.107 287.607 366.593 287.75 362.106 287.549 C 361.445 287.519 360.755 287.474 360.185 287.138 C 359.615 286.802 359.215 286.081 359.461 285.466 C 359.769 284.696 360.796 284.566 361.623 284.626 C 364.042 284.8 366.532 285.538 368.835 284.781 C 370.454 284.249 371.75 283.044 372.966 281.85 C 374.183 280.657 375.421 279.41 376.996 278.759 C 378.571 278.108 380.594 278.209 381.739 279.471 C 382.521 280.333 382.758 281.578 382.652 282.737 C 382.523 284.148 381.925 285.513 380.973 286.563 C 380.413 287.181 379.709 287.734 379.468 288.533 C 379.188 289.459 379.619 290.456 380.194 291.234 C 380.769 292.012 381.499 292.682 381.954 293.536 C 383.175 295.828 381.909 298.902 379.654 300.189 C 377.399 301.476 374.515 301.227 372.155 300.145 C 369.795 299.063 367.858 297.249 366.022 295.413 C 364.186 293.577 362.377 291.666 360.16 290.315 C 359.834 290.116 359.468 289.888 359.388 289.515 C 359.304 289.124 359.594 288.73 359.955 288.558 C 360.316 288.386 360.732 288.384 361.132 288.385 C 363.806 288.393 366.48 288.401 369.154 288.408 C 370.381 288.412 371.621 288.417 372.815 288.698 C 374.009 288.979 375.172 289.565 375.92 290.539 C 377.137 292.124 377.012 294.383 376.366 296.274 C 375.705 298.208 374.221 300.104 373.848 302.108 C 373.483 304.065 374.44 306.576 375.029 308.418 C 376.331 312.49 378.313 316.729 377.451 321.104 C 376.788 324.471 374.465 327.326 371.689 329.344 C 368.913 331.362 365.688 332.653 362.501 333.924 C 347.423 339.935 332.521 337.104 316.751 333.259 C 307.398 330.979 298.168 327.842 289.921 322.877 C 286.014 320.525 282.426 317.946 279.221 314.697 C 276.183 311.618 273.679 307.676 271.647 303.873 C 271.38 303.373 271.153 302.674 271.588 302.311 C 271.858 302.085 272.255 302.123 272.601 302.182 C 276.748 302.894 280.551 304.958 283.97 307.409 C 287.389 309.861 290.497 312.718 293.828 315.289"/>
    </g>
  </g>
</svg>