<?xml version="1.0" encoding="utf-8"?>
<svg version="1.1" id="Layer_1" xmlns="http://www.w3.org/2000/svg" x="0px" y="0px" viewBox="0 0 4975 4975" style="enable-background:new 0 0 4975 4975;">
  <path d="M 2738.23 2534.67 L 3213.96 3365.75 L 3252.54 3325.13 L 2912.75 2310.35 C 2912.75 2310.35 3254.52 1906.52 3323.14 1796.85 C 3345.57 1753.23 3438.54 1577.22 3357.55 1512.95 C 3357.25 1512.7 3356.92 1512.48 3356.62 1512.24 C 3356.29 1512.04 3355.97 1511.81 3355.64 1511.6 C 3266.97 1456.93 3112.26 1589.65 3073.74 1621.99 C 2980.35 1714.29 2661.37 2134.13 2661.37 2134.13 L 1524.19 2113.38 L 1493.27 2159.36 L 2479.91 2353.57 C 2479.91 2353.57 2332.79 2570.27 2261.19 2684.2 C 2189.6 2798.12 2036.58 3070.47 2036.58 3070.47 L 1681.85 3096.66 L 1686.8 3117.69 L 2004.99 3197.16 L 2165.71 3421.86 L 2188.7 3420.41 L 2126.23 3133.31 C 2126.23 3133.31 2363.04 2919.73 2459.98 2823.57 C 2556.91 2727.38 2738.23 2534.67 2738.23 2534.67 Z" style=""/>
</svg>