<?xml version="1.0" encoding="utf-8"?>
<svg version="1.1" id="Layer_1" xmlns="http://www.w3.org/2000/svg" x="0px" y="0px" viewBox="0 0 450 450" style="enable-background:new 0 0 450 450;">
  <path style="fill:#BCE0F5;" d="M 252.186 215.236 C 256.704 212.172 260.089 211.098 263.457 211.918 C 266.845 212.744 269.331 215.896 270.32 218.404 C 273.137 225.539 267.471 231.28 262.224 234.839 C 253.57 240.708 246.946 235.578 244.967 230.777 C 243.01 226.024 245.216 219.963 252.186 215.236 Z M 159.809 293.559 C 159.862 292.852 159.448 288.921 161.6 284.54 C 164.339 278.964 165.621 274.763 187.918 259.641 C 196.394 253.892 225.568 234.105 234.727 227.895 C 236.257 226.857 238.282 227.35 239.247 228.995 C 240.066 230.389 241.022 232.019 241.758 233.274 C 245.325 239.356 254.116 243.628 263.606 237.192 C 273.096 230.756 275.153 223.519 272.703 217.316 C 270.254 211.114 262.904 204.67 253.17 211.271 C 253.17 211.271 247.236 215.296 238.74 221.058 C 237.368 221.988 235.567 221.703 234.51 220.379 L 228.186 212.481 L 224.832 215.228 L 230.245 222.056 C 230.861 222.835 231.134 223.864 230.991 224.876 C 230.847 225.887 230.301 226.781 229.497 227.326 C 211.263 239.694 188.088 255.409 181.508 259.871 C 170.193 267.547 163.228 273.623 160.277 280.468 C 157.043 287.965 158.98 293.806 159.326 294.395 C 159.667 294.982 159.721 294.715 159.809 293.559 Z"/>
  <path style="fill:#30DFF3;" d="M 207.631 190.617 C 203.157 188.515 198.351 181.419 203.764 172.085 C 207.046 166.425 212.354 160.304 219.005 163.297 C 221.345 164.347 224.289 167.004 225.073 170.642 C 225.853 174.258 224.871 177.905 222.047 182.777 C 217.687 190.295 212.062 192.697 207.631 190.617 Z M 164.018 294.751 C 164.488 295.464 164.342 294.825 164.571 293.355 C 164.795 291.9 165.39 289.642 166.581 286.219 C 168.134 281.765 169.871 278.612 179.22 261.897 C 179.22 261.897 180.324 259.997 180.902 259.004 C 185.018 251.903 199.513 226.907 210.921 207.235 C 211.426 206.368 212.254 205.776 213.193 205.616 C 214.133 205.456 215.091 205.744 215.817 206.402 L 222.198 212.185 L 224.876 208.695 L 217.358 201.806 C 216.122 200.674 215.847 198.74 216.704 197.26 C 222.02 188.096 225.731 181.692 225.731 181.692 C 231.822 171.192 225.79 163.32 220.007 160.721 C 214.226 158.121 207.505 160.37 201.568 170.605 C 195.631 180.843 199.65 190.271 205.326 194.076 C 206.498 194.862 208.016 195.881 209.32 196.754 C 210.856 197.784 211.326 199.959 210.368 201.609 C 204.639 211.488 186.39 242.959 181.087 252.105 C 179.459 254.914 176.571 259.67 176.571 259.67 C 170.505 270.117 166.352 277.672 164.327 284.181 C 161.907 291.956 163.579 294.091 164.018 294.751 Z"/>
</svg>